{"title":"Chhoti Bahen 1959 DvDrip ~ Drama | Family ~ [RdY]","uid":6702485,"size":1462145024,"categoryP":"video","categoryS":"movies","magnet":"?xt=urn:btih:6011f924147dd2fe6fe27ad84055efbdc61678b2&amp;dn=Chhoti+Bahen+1959+DvDrip+%7E+Drama+%7C+Family+%7E+%5BRdY%5D&amp;tr=udp%3A%2F%2Ftracker.openbittorrent.com%3A80&amp;tr=udp%3A%2F%2Fopen.demonii.com%3A1337&amp;tr=udp%3A%2F%2Ftracker.coppersurfer.tk%3A6969&amp;tr=udp%3A%2F%2Fexodus.desync.com%3A6969","seeders":0,"leechers":0,"uploader":"ilyas2000pk","files":-1,"time":1317034495,"description":"Cast\nBalraj Sahni\t...\tRajendra\nShyama\t...\tShobha\nRehman\t...\tShekhar\nNanda\t...\tMeena\nMehmood\t...\tMahesh\nShubha Khote\t...\t\nSudesh Kumar\t...\t\nVeena\t...\t\nDhumal\t...\tSukhiya\nBadri Prasad\t...\t\nRadhakrishan\t...\tRajendra's uncle (as Radha Kishan)\nKanchanamala\t...\t(as Kanchanmala)\nHari Shivdasani\t...\t(as Hari Sivadasani)\nKunwar Keshav\t...\t\nKapoor\t...\t\nFazlu\t...\t\nMunni\t...\t\nKathana\t...\t\nCrew\nL.v. Prasad\t...\tDirector\nLata Mangeshkar\t...\tSinger\nManna Dey\t...\tSinger\nAsha Bhosle\t...\tSinger\nMohammad Rafi\t...\tSinger\nMukesh\t...\tSinger\nSubir Sen\t...\tSinger\nJaikishan Dayabhai Pankal\t...\tMusic Director\nShankarsinh Raghuwanshi\t...\tMusic Director\nDwarka Divecha\t...\tCinematography\nShivaji Avdhut\t...\tEditor\nInder Raj Anand\t...\tDialogue\nInder Raj Anand\t...\tScreenplay\nA.A. Majid\t...\tArt Director\nT.G. Madhu\t...\tmakeup artist\nSuryakant\t...\tassistant makeup artist\nAchchan\t...\tassistant makeup artist\nBeurtha Ezeikal\t...\thair stylist\nRafique Gwaliori\t...\tproduction manager\nTrideep Ojha\t...\tassistant director\nYogesh\t...\tassistant director\nA. Ram Mohan\t...\tassistant director\nAbdul\t...\tassistant art director\nMinoo Katrak\t...\tsound re-recordist\nMinoo Katrak\t...\tsong recordist\nS.N. Sharma\t...\tsound assistant\nA.S. Laxmi Narayanan\t...\tsound assistant\nP.R.L. Raman\t...\tassistant camera\nAziz\t...\tassistant camera\nK. Rai Chowdhury\t...\tassistant camera\nBashir Ahmed\t...\tcostume in charge\nUmakant Nayak\t...\tassistant editor\nVithal Gosavi\t...\tassistant editor\nR. Hiralal\t...\tassistant editor\nG. Nair\t...\tdriver\nY. Ramchandra Rao\t...\tproduction assistant\nM.P. Rao\t...\tproduction controller\nYashwant Mitkar\t...\taudiographer\nSebastian D'Souza\t...\tmusic assistant\nDattaram\t...\tmusic assistant\nJeevankala\t...\tdances\nSheelavaz\t...\tdances\nSatyanarayan\t...\tdance director\nS.S. Lingayat\t...\tprocessing in charge\nJanu\t...\tdress assistant\nMinoo Katrak\t...\tbackground music recordist\nD.O. Bhansali\t...\tassociate sound\nNanakchand\t...\thelper\nSham Ratan\t...\thelper\n\n\n\n\n\nChhoti Bahen 1959 DvDrip ~ Drama | Family ~ [RdY]\n\n\n\nFormat                           : AVI\nFormat/Info                      : Audio Video Interleave\nFile size                        : 1.36 GiB\nDuration                         : 2h 38mn\nOverall bit rate                 : 1 233 Kbps\nWriting application              : VirtualDubMod 1.5.10.2 (build 2540/release)\nWriting library                  : VirtualDubMod build 2540/release\n\nVideo\nFormat                           : MPEG-4 Visual\nFormat profile                   : Streaming Video@L1\nFormat settings, BVOP            : Yes\nFormat settings, QPel            : Yes\nFormat settings, GMC             : No warppoints\nFormat settings, Matrix          : Default\nCodec ID                         : XVID\nCodec ID/Hint                    : XviD\nDuration                         : 2h 38mn\nBit rate                         : 1 093 Kbps\nWidth                            : 656 pixels\nHeight                           : 480 pixels\nDisplay aspect ratio             : 4/3\nFrame rate                       : 29.970 fps\nResolution                       : 24 bits\nColorimetry                      : 4.2.0\nScan type                        : Progressive\nBits/(Pixel*Frame)               : 0.116\nStream size                      : 1.21 GiB (89%)\nWriting library                  : XviD 50\n\nAudio\nFormat                           : MPEG Audio\nFormat version                   : Version 1\nFormat profile                   : Layer 3\nCodec ID                         : 55\nCodec ID/Hint                    : MP3\nDuration                         : 2h 38mn\nBit rate mode                    : Constant\nBit rate                         : 128 Kbps\nMinimum bit rate                 : 128 Kbps\nChannel(s)                       : 2 channels\nSampling rate                    : 48.0 KHz\nResolution                       : 16 bits\nStream size                      : 145 MiB (10%)\nAlignment                        : Aligned on interleaves\nInterleave, duration             : 33 ms (1.00 video frame)\nInterleave, preload duration     : 504 ms\nWriting library                  : LAME3.98r\nEncoding settings                : CBR\n","torrent":{"xt":"urn:btih:6011f924147dd2fe6fe27ad84055efbdc61678b2","amp;dn":"Chhoti+Bahen+1959+DvDrip+%7E+Drama+%7C+Family+%7E+%5BRdY%5D","amp;tr":["udp%3A%2F%2Ftracker.openbittorrent.com%3A80","udp%3A%2F%2Fopen.demonii.com%3A1337","udp%3A%2F%2Ftracker.coppersurfer.tk%3A6969","udp%3A%2F%2Fexodus.desync.com%3A6969"],"infoHash":"6011f924147dd2fe6fe27ad84055efbdc61678b2","infoHashBuffer":{"type":"Buffer","data":[96,17,249,36,20,125,210,254,111,226,122,216,64,85,239,189,198,22,120,178]},"announce":[],"urlList":[]}}